<?xml version="1.0" encoding="utf-8" standalone="yes"?><svg version="1.1" baseProfile="full" xmlns="http://www.w3.org/2000/svg" xmlns:xlink="http://www.w3.org/1999/xlink" xmlns:ev="http://www.w3.org/2001/xml-events"  width="960px" height = "720px"><metadata><?xpacket begin="" id=""?><x:xmpmeta xmlns:x="adobe:ns:meta/"><rdf:RDF xmlns:rdf="http://www.w3.org/1999/02/22-rdf-syntax-ns#"><rdf:Description rdf:about="" xmlns:xapRights="http://ns.adobe.com/xap/1.0/rights/"><xapRights:Marked>True</xapRights:Marked></rdf:Description><rdf:Description rdf:about="" xmlns:xapRights="http://ns.adobe.com/xap/1.0/rights/"><xapRights:WebStatement rdf:resource="http://www.xmple.com/wallpaper/black-grey-graph-paper-grid-2048x2732-c2-000000-dcdcdc-l2-1-23-a-0-f-20-image/"/></rdf:Description><rdf:Description rdf:about="" xmlns:xapRights="http://ns.adobe.com/xap/1.0/rights/"><xapRights:UsageTerms><rdf:Alt><rdf:li xml:lang="en" >This work is licensed under a &lt;a rel=&#34;license&#34; href=&#34;http://creativecommons.org/licenses/by-nc-nd/4.0/&#34;&gt;Creative Commons Attribution-NonCommercial-NoDerivatives 4.0 International License&lt;/a&gt;.</rdf:li></rdf:Alt></xapRights:UsageTerms></rdf:Description><rdf:Description rdf:about="" xmlns:dc="http://purl.org/dc/elements/1.1/"><dc:title><rdf:Alt><rdf:li xml:lang="en">black grey graph paper grid gainsboro 2048x2732 #000000 #dcdcdc 0° 1px 23px</rdf:li></rdf:Alt></dc:title></rdf:Description><rdf:Description rdf:about="" xmlns:cc="http://creativecommons.org/ns#"><cc:license rdf:resource="http://creativecommons.org/licenses/by-nc-nd/4.0/"/></rdf:Description><rdf:Description rdf:about="" xmlns:cc="http://creativecommons.org/ns#"><cc:attributionName>xmple.com</cc:attributionName></rdf:Description><rdf:Description rdf:about="" xmlns:cc="http://creativecommons.org/ns#"><cc:morePermissions rdf:resource="http://www.xmple.com"/></rdf:Description></rdf:RDF></x:xmpmeta><?xpacket end="r"?></metadata><title>black grey graph paper grid gainsboro 2048x2732 #000000 #dcdcdc 0° 1px 23px</title><desc>black grey graph paper grid gainsboro 2048x2732 #000000 #dcdcdc 0° 1px 23px</desc><style type="text/css" ><![CDATA[.x{font:20px verdana;fill:#fff;stroke:#555;stroke-width:20px;opacity:0.35;}.o{stroke:none;opacity:0.01;}]]></style><defs><pattern id="p1" patternUnits="userSpaceOnUse" x="0" y="0" width="23" height="23" patternTransform="translate(1024,1366) rotate(360 0 0)"><path fill="#dcdcdc" fill-opacity="0.7" d="M0 0H23v1H1V23H0z"/></pattern></defs><rect width="960" height="720" x="0" y="0" fill="#000000" /><rect width="960" height="720" x="0" y="0" fill="url(#p1)" /><path class="x o" d="M5 5h2v1H6v1h1v1H5zM4 3h4v1h1v5H8v1H4V9H3V4h1v5h4V4H4zm7 1h1v2h1V4h1v2h-1v1h1v2h-1V7h-1v2h-1V7h1V6h-1zm4 0h5v5h-1V5h-1v4h-1V5h-1v4h-1zm6 0h3l-1 1h-1v3h1V5l1-1v5h-2v2h-1zm4-2h1v6h1v1h-2zm3 2h3l-1 1h-1v1h1V5l1-1v3h-2v1h2v1h-3V4zm4 4h1v1h-1zm2-4h3v1h-2v3h2v1h-3zm4 0h3v5h-3l1-1h1V5h-1v3l-1 1zm4 0h5v5h-1V5h-1v4h-1V5h-1v4h-1z"/></svg>